<svg t="1762831371070" class="icon" viewBox="0 0 1024 1024" version="1.1" xmlns="http://www.w3.org/2000/svg" p-id="4613" width="200" height="200"><path d="M217.856 94.677333c-36.608 14.762667-60.928 38.485333-96.597333 83.2-88.618667 111.232-9.386667 332.8 194.730666 535.210667l10.581334 10.368c192 184.576 434.986667 264.533333 527.701333 184.064l3.029333-2.816-1.450666 1.194667a249.301333 249.301333 0 0 0 64.042666-77.994667c33.152-64 24.149333-130.858667-41.173333-182.954667-94.037333-75.008-157.184-77.568-219.434667-20.48l-6.997333 6.570667-18.005333 17.834667c-7.808-1.621333-19.882667-7.338667-34.730667-16.896-29.610667-19.114667-66.517333-50.901333-108.586667-92.586667-41.941333-41.642667-74.069333-78.208-93.312-107.605333l-3.882666-6.101334a120.448 120.448 0 0 1-12.245334-24.832l-0.938666-3.413333 18.133333-17.92 6.613333-6.954667c57.472-61.738667 54.912-124.373333-20.650666-217.642666-51.328-63.36-109.653333-83.328-166.826667-60.245334z m99.925333 113.493334l11.221334 14.08c37.546667 48.682667 37.888 64.853333 16.384 89.258666l-8.32 8.874667-21.12 20.821333c-45.482667 45.056-25.258667 102.314667 41.856 181.205334l14.08 16.085333 15.232 16.682667 8.106666 8.533333 16.981334 17.621333 18.176 18.261334 9.258666 9.130666 18.090667 17.450667 17.408 16.298667c5.717333 5.205333 11.306667 10.24 16.810667 15.104l16.213333 13.909333c79.616 66.56 137.216 86.570667 182.698667 41.685333l21.034666-20.992 5.546667-5.248c24.277333-22.186667 39.296-25.301333 80.725333 3.968l12.586667 9.258667 14.250667 11.093333c31.232 24.917333 34.261333 47.573333 18.602666 77.781334a165.845333 165.845333 0 0 1-26.88 36.608l-7.253333 7.338666-5.546667 5.12-5.333333 4.650667c-14.421333 14.293333-69.888 15.658667-141.184-7.722667-90.709333-29.781333-189.994667-92.074667-280.746667-182.101333-177.109333-175.658667-241.408-355.413333-188.16-422.272 26.453333-33.194667 43.648-49.92 61.653334-57.173333 19.285333-7.808 38.570667-1.194667 67.626666 34.688z" fill="#000000" p-id="4614"></path></svg>